<?xml version="1.0" encoding="utf-8"?><svg xml:space="preserve" viewBox="0 0 100 100" y="0" x="0" xmlns="http://www.w3.org/2000/svg" id="圖層_1" version="1.1" width="200px" height="200px" xmlns:xlink="http://www.w3.org/1999/xlink" style="width:100%;height:100%;background-size:initial;background-repeat:initial;background-position-y:initial;background-position-x:initial;background-origin:initial;background-image:initial;background-color:rgb(255, 255, 255);background-clip:initial;background-attachment:initial;animation-play-state:paused" ><g class="ldl-scale" style="transform-origin:50% 50%;transform:rotate(0deg) scale(0.8, 0.8);animation-play-state:paused" ><circle fill="#333" r="40" cy="50" cx="50" style="fill:rgb(51, 51, 51);animation-play-state:paused" ></circle>
<g style="animation-play-state:paused" ><path fill="#fff" d="M71.1 40.5H60.7v-3.1c0-2.8-2.7-4.9-6.2-4.9h-9.1c-3.5 0-6.2 2.2-6.2 4.9v3.1H28.9c-1 0-1.9.8-1.9 1.9v20.7c0 1 .8 1.9 1.9 1.9h42.2c1 0 1.9-.8 1.9-1.9V42.4c0-1-.8-1.9-1.9-1.9zm-29.5-3.1c0-1.3 1.6-2.6 3.9-2.6h9.1c2.3 0 3.9 1.3 3.9 2.6v3.1H41.6v-3.1zM50 62.1c-5.1 0-9.2-4.1-9.2-9.2s4.1-9.2 9.2-9.2 9.2 4.1 9.2 9.2-4.1 9.2-9.2 9.2z" style="fill:rgb(255, 255, 255);animation-play-state:paused" ></path>
<path fill="#fff" d="M50 45.3c-4.2 0-7.5 3.4-7.5 7.5 0 4.2 3.4 7.5 7.5 7.5s7.5-3.4 7.5-7.5-3.3-7.5-7.5-7.5zm5 9h-3.6v3.6h-2.9v-3.6H45v-2.9h3.6v-3.6h2.9v3.6H55v2.9z" style="fill:rgb(255, 255, 255);animation-play-state:paused" ></path></g>
<metadata xmlns:d="https://loading.io/stock/" style="animation-play-state:paused" ><d:name style="animation-play-state:paused" >first aid box</d:name>


<d:tags style="animation-play-state:paused" >first aid box,first-aid,healer's kit,medic,medical chest</d:tags>


<d:license style="animation-play-state:paused" >by</d:license>


<d:slug style="animation-play-state:paused" >fq8uv8</d:slug></metadata></g><!-- generated by https://loading.io/ --></svg>